<?xml version="1.0" encoding="UTF-8" standalone="no"?>
<svg
   version="1.1"
   width="20"
   height="20"
   viewBox="-0.5 -0.5 20 20"
   id="svg40"
   sodipodi:docname="favicon.inkscape.svg"
   inkscape:version="1.1.2 (0a00cf5339, 2022-02-04)"
   xmlns:inkscape="http://www.inkscape.org/namespaces/inkscape"
   xmlns:sodipodi="http://sodipodi.sourceforge.net/DTD/sodipodi-0.dtd"
   xmlns="http://www.w3.org/2000/svg"
   xmlns:svg="http://www.w3.org/2000/svg">
  <sodipodi:namedview
     id="namedview42"
     pagecolor="#ffffff"
     bordercolor="#666666"
     borderopacity="1.0"
     inkscape:showpageshadow="2"
     inkscape:pageopacity="0.0"
     inkscape:pagecheckerboard="true"
     inkscape:deskcolor="#d1d1d1"
     showgrid="true"
     inkscape:zoom="17.386667"
     inkscape:cx="-3.1345858"
     inkscape:cy="10.065184"
     inkscape:window-width="1920"
     inkscape:window-height="1015"
     inkscape:window-x="0"
     inkscape:window-y="0"
     inkscape:window-maximized="1"
     inkscape:current-layer="svg40"
     inkscape:pageshadow="2">
    <inkscape:grid
       spacingx="10"
       spacingy="10"
       type="xygrid"
       id="grid307" />
  </sodipodi:namedview>
  <defs
     id="defs18" />
  <g
     id="g15"
     style="fill:#ffffff">
    <path
       id="path2029"
       style="font-weight:600;font-size:12px;line-height:0.8;font-family:'Fira Code';-inkscape-font-specification:'Fira Code Semi-Bold';letter-spacing:0px;word-spacing:0px;display:inline;fill:#ffffff"
       d="m 6.4511719,0.3515625 c -0.717948,0 -1.3703652,0.17120629 -1.9570313,0.51171875 C 3.9115772,1.2037937 3.4481306,1.7047222 3.1035156,2.3652344 2.7630033,3.021644 2.5917969,3.8255498 2.5917969,4.7773438 c 0,0.9682043 0.1657398,1.784604 0.4980469,2.4492187 0.3323076,0.660512 0.7904834,1.1614408 1.3730468,1.5019531 0.4465098,0.2578441 0.9399661,0.4163448 1.4804688,0.4765625 L 6.5839844,8.6171875 7.109375,9.1894531 C 7.4726359,9.1410863 7.7970699,9.0512995 8.0820312,8.9179688 8.5333128,8.7087383 8.9075449,8.4574937 9.2070312,8.1621094 L 8.4140625,7.1582031 C 8.1843194,7.3469209 7.9223375,7.5198834 7.6269531,7.6757812 7.3356714,7.8275758 6.9684668,7.9023437 6.5253906,7.9023438 6.106929,7.9023438 5.7307445,7.7973175 5.3984375,7.5839844 5.0702325,7.3706513 4.810008,7.0354623 4.6171875,6.5800781 4.4284697,6.1205913 4.3339844,5.519907 4.3339844,4.7773438 c 0,-0.7548711 0.097999,-1.3627789 0.2949218,-1.8222657 0.1969232,-0.4635892 0.4589051,-0.800535 0.7871094,-1.0097656 0.3323077,-0.2092305 0.6977549,-0.3125 1.0957032,-0.3125 0.328205,0 0.636649,0.055246 0.9238281,0.1660156 0.287179,0.1066666 0.5546275,0.2599121 0.8007812,0.4609375 L 9.0898438,1.2441406 C 8.7411261,0.95696138 8.3633806,0.73773221 7.953125,0.5859375 7.5428687,0.43004026 7.0419406,0.3515625 6.4511719,0.3515625 Z" />
    <path
       id="path2031"
       style="font-weight:600;font-size:12px;line-height:0.8;font-family:'Fira Code';-inkscape-font-specification:'Fira Code Semi-Bold';letter-spacing:0px;word-spacing:0px;display:inline;fill:#ffffff"
       d="M 10.205078,0.53710938 V 9.046875 h 1.029297 L 12.458984,7.7988281 H 11.890625 V 1.7929688 h 0.626953 c 0.274872,0 0.540564,0.035529 0.794922,0.109375 0.254359,0.073846 0.482569,0.2165506 0.683594,0.4257812 0.201026,0.205128 0.357785,0.5028349 0.472656,0.8925781 0.118975,0.3897432 0.179687,0.8994555 0.179688,1.53125 0,0.3168078 -0.01692,0.6045894 -0.04688,0.8652344 L 15.744141,4.453125 16.166016,4.0234375 16.392578,4.2480469 C 16.355361,3.5940475 16.244048,3.0460397 16.056641,2.6054688 15.822794,2.0516231 15.507323,1.6237056 15.109375,1.3242188 14.715529,1.0247318 14.269847,0.81975346 13.773438,0.70898438 c -0.496411,-0.11487169 -1.00788,-0.171875 -1.53711,-0.171875 z" />
    <path
       id="path2033"
       style="font-weight:600;font-size:12px;line-height:0.8;font-family:'Fira Code';-inkscape-font-specification:'Fira Code Semi-Bold';letter-spacing:0px;word-spacing:0px;display:inline;fill:#ffffff"
       d="m 4.921875,10.138672 c -0.02363,-2.3e-4 -0.046617,-0.002 -0.070312,-0.002 h -2.03125 v 8.511719 h 2.1777344 c 0.4964095,0 0.9830875,-0.06247 1.4589843,-0.185547 0.4799996,-0.123077 0.9131872,-0.340549 1.2988282,-0.652344 0.3856403,-0.311794 0.6921312,-0.74674 0.921875,-1.304688 0.13894,-0.339907 0.2361013,-0.737464 0.2910156,-1.191406 l -0.00586,0.0059 -1.7597656,-1.917968 c 0.037974,0.279682 0.060547,0.592278 0.060547,0.949218 0,0.812307 -0.099952,1.441689 -0.296875,1.884766 -0.1928198,0.43898 -0.4475785,0.741957 -0.7675781,0.910162 C 5.8792191,17.31469 5.5262659,17.398438 5.140625,17.398438 H 4.5058594 v -6.00586 h 0.6289062 c 0.080073,0 0.1579962,0.0035 0.2363282,0.0098 l -0.8339844,-0.91019 z" />
    <path
       id="path2035"
       style="font-weight:600;font-size:12px;line-height:0.8;font-family:'Fira Code';-inkscape-font-specification:'Fira Code Semi-Bold';letter-spacing:0px;word-spacing:0px;display:inline;fill:#ffffff"
       d="m 12.445312,11.773438 -1.6875,1.71875 v 5.15625 h 5.261719 l 0.179688,-1.367188 h -3.753907 z" />
  </g>
  <path
     style="color:#000000;display:inline;fill:#0080f0;stroke-width:1.2;stroke-miterlimit:10;-inkscape-stroke:none;paint-order:stroke markers fill"
     d="M 16.17242,4.8731455 9.0181242,12.160255 6.5474204,9.464942 5.3853114,10.529396 8.9771082,14.449317 17.295467,5.978614 Z"
     id="path1722"
     inkscape:label="CHECK" />
</svg>
