<?xml version="1.0" encoding="UTF-8"?>
<svg xmlns="http://www.w3.org/2000/svg" version="1.1" viewBox="0 0 256 256" stroke="black" fill="none">
    <g id="hands" stroke-width="0.2">
        <path d="M94.88068 65.03593C94.88068 65.03593 100.22607 95.77192 104.90329 94.70285C109.5805 93.63377 101.02788 63.83322 101.02788 63.83322C101.02788 63.83322 98.087914 63.43231 94.88068 65.03593C94.88068 65.03593 94.88068 65.03593 94.88068 65.03593"/>
        <path d="M101.02788 63.83322C106.4735 64.63502 106.86901 66.28704 106.86901 66.28704C106.86901 66.28704 115.35481 82.12276 106.20083 92.81354"/>
        <path d="M94.880678 65.03593C94.880678 65.03593 89.202381 65.64175 88.682662 68.94904"/>
        <path d="M102.71503 93.23401C102.71503 93.23401 100.21094 98.57292 93.454613 83.54837"/>
        <path d="M127.89769 55.578131C127.89769 55.578131 123.64546 52.979544 122.60603 57.090037C122.60603 57.090037 117.21987 56.145096 117.83408 60.58632C117.83408 60.58632 114.76302 60.11385 114.99926 63.94085C114.99926 63.94085 114.2433 80.85529 127.75595 88.65105"/>
        <path d="M117.83408 60.58632C117.83408 60.58632 119.72395 80.85529 127.75595 88.65105"/>
        <path d="M122.60603 57.090037C122.60603 57.090037 125.67708 78.68193 131.7247 87.56437C131.7247 87.56437 131.6302 90.68267 127.75595 88.65105"/>
    </g>
    <g id="wood" stroke-width="0.7">
        <path d="M108.74375 70.52709C108.74375 70.52709 115.23549 68.12221 115.23549 68.12221"/>
        <path d="M67.619189 83.44412C67.619189 83.44412 51.015071 86.88521 48.375784 86.01659C48.375784 86.01659 21.849284 90.6938 16.503893 89.95881C16.503893 89.95881 -2.80633 90.62699 6.9490077 108.26678C6.9490077 108.26678 15.969354 133.85783 33.074604 132.85557C33.074604 132.85557 41.159507 129.71516 60.336096 125.30521"/>
        <path d="M94.479776 115.01533C94.479776 115.01533 132.69932 104.72545 136.44109 100.04824"/>
        <path d="M171.18613 82.80935C171.18613 82.80935 199.9176 68.24316 202.45666 61.29415C202.45666 61.29415 206.86661 53.27607 219.82919 52.875166C219.82919 52.875166 231.05451 32.696317 210.60839 20.936457C210.60839 20.936457 185.08415 25.346405 178.53604 33.36449"/>
        <path d="M178.53604 33.36449C178.53604 33.36449 157.82265 48.064314 153.54634 48.465218"/>
    </g>
    <g id="body" stroke-width="0.4">
        <path d="M127.89769 55.578131C127.89769 55.578131 128.93712 60.63356 131.20498 63.51563"/>
        <path d="M131.20498 63.51563C133.9453 66.82292 134.08706 86.0997 134.08706 86.0997C134.08706 86.0997 133.66183 88.27308 131.7247 87.56437"/>
        <path d="M194.65774 152.05655C194.65774 152.05655 177.19666 150.38952 171.18613 82.80935"/>
        <path d="M171.18613 82.80935C171.18613 82.80935 152.60788 29.308787 137.39434 44.522329C137.39434 44.522329 128.22842 49.058041 127.89769 55.578131"/>
        <path d="M134.08706 86.0997C134.08706 86.0997 136.44109 100.04824 136.44109 100.04824"/>
        <path d="M136.44109 100.04824C136.44109 100.04824 132.66964 194.2009 174.24702 187.01935"/>
        <path d="M60.336096 125.30521C59.440049 113.48392 67.619189 83.44412 67.619189 83.44412C72.872307 65.85847 88.682662 68.94904 88.682662 68.94904C96.667407 74.47694 93.454613 83.54837 93.454613 83.54837C89.958332 88.93453 94.479776 115.01533 94.479776 115.01533C94.479776 115.01533 97.895833 138.26042 104.88839 142.98513C104.88839 142.98513 143.25298 182.10566 137.58333 187.96429"/>
        <path d="M137.96131 135.28386C137.96131 135.28386 102.85676 139.34711 104.88839 142.98513"/>
        <path d="M125.86607 136.79576C125.86607 136.79576 123.87943 105.6609 121.8749 106.99724"/>
        <path d="M114.79226 138.40141C114.79226 138.40141 104.63602 118.7571 106.23964 111.94173"/>
        <path d="M60.336096 125.30521C56.794214 143.72202 62.744048 183.23959 62.744048 183.23959C62.744048 183.23959 54.239583 182.67263 58.019345 195.90179"/>
        <path d="M58.019343 195.90179C58.019343 195.90179 69.736607 245.79465 139.6622 237.66816C139.6622 237.66816 166.6875 233.8884 195.41369 197.98066"/>
        <path d="M195.41369 197.98066C195.41369 197.98066 210.34375 194.38989 219.22619 180.59375C219.22619 180.59375 228.29762 161.88394 231.69941 162.07292C231.69941 162.07292 244.92857 150.54465 247.00744 142.79614"/>
        <path d="M247.00744 142.79614C247.00744 142.79614 247.00744 142.79614 247.00744 142.79614"/>
        <path d="M247.00744 142.79614C247.00744 142.79614 254.02096 128.74224 240.79179 116.26902C240.79179 116.26902 243.88344 116.01759 243.88344 116.01759C243.88344 116.01759 243.21527 112.27582 234.06129 108.66768C234.06129 108.66768 237.40216 106.66316 237.40216 106.66316C237.40216 106.66316 232.52449 101.51822 223.10324 102.65412C223.10324 102.65412 223.97186 101.11732 223.97186 101.11732C223.97186 101.11732 224.03866 100.98368 224.03866 100.98368C224.03866 100.98368 198.31397 95.3042 184.95049 124.43658"/>
        <path d="M241.52678 117.47173C241.52678 117.47173 241.52678 117.47173 241.52678 117.47173"/>
        <path d="M184.95049 124.43658C184.95049 124.43658 180.27329 129.18061 179.27103 128.98016"/>
        <path d="M184.95049 124.43658C184.95049 124.43658 183.41371 138.60187 192.76814 146.61995"/>
        <path d="M192.76814 146.61995C192.76814 146.61995 213.41472 169.27104 244.61843 147.9563"/>
    </g>
    <g id="face" stroke-width="0.8">
        <path d="M225.17457 124.10249C225.17457 124.10249 221.56644 128.77971 222.10098 130.24969C222.10098 130.24969 218.22557 132.78875 214.75107 130.51696C214.75107 130.51696 209.27204 126.90883 211.00929 124.23613C212.44587 125.10476 217.25672 119.85959 217.25672 119.85959"/>
        <path d="M211.74428 145.14997C218.02511 143.94726 208.67068 135.46145 208.67068 135.46145C208.67068 135.46145 201.78849 129.18062 197.77945 134.39237"/>
        <path d="M197.77945 134.39237C197.77945 134.39237 205.19617 145.2836 211.74428 145.14997"/>
        <circle style="fill:#000000" cx="213.08063" cy="111.74128" r="3.5435269"/>
        <circle style="fill:#000000" cx="233.92" cy="127.34636" r="3.5435269"/>
    </g>
</svg>
